<svg width="50" height="50" viewBox="0 0 50 50" fill="none" xmlns="http://www.w3.org/2000/svg">
<circle cx="25" cy="25" r="25" fill="#EEB82D"/>
<path d="M32.2332 23.2H17.1541C15.9644 23.2 15 24.2297 15 25.5V34.7C15 35.9703 15.9644 37 17.1541 37H32.2332C33.4229 37 34.3873 35.9703 34.3873 34.7V25.5C34.3873 24.2297 33.4229 23.2 32.2332 23.2Z" stroke="white" stroke-width="2" stroke-linecap="round" stroke-linejoin="round"/>
<path d="M18.2313 23.2V17.45C18.2313 16.535 18.5718 15.6575 19.1777 15.0105C19.7837 14.3635 20.6056 14 21.4625 14H27.925C28.782 14 29.6038 14.3635 30.2098 15.0105C30.8158 15.6575 31.1562 16.535 31.1562 17.45V18.6" stroke="white" stroke-width="2" stroke-linecap="round" stroke-linejoin="round"/>
</svg>
