<svg width="30" height="30" viewBox="0 0 30 30" fill="none" xmlns="http://www.w3.org/2000/svg">
<g filter="url(#filter0_d)">
<path d="M22.619 14.5238H21.1905V10.7143C21.1905 9.66667 20.3333 8.80952 19.2857 8.80952H15.4762V7.38095C15.4762 6.06667 14.4095 5 13.0952 5C11.781 5 10.7143 6.06667 10.7143 7.38095V8.80952H6.90476C5.85714 8.80952 5.00952 9.66667 5.00952 10.7143V14.3333H6.42857C7.84762 14.3333 9 15.4857 9 16.9048C9 18.3238 7.84762 19.4762 6.42857 19.4762H5V23.0952C5 24.1429 5.85714 25 6.90476 25H10.5238V23.5714C10.5238 22.1524 11.6762 21 13.0952 21C14.5143 21 15.6667 22.1524 15.6667 23.5714V25H19.2857C20.3333 25 21.1905 24.1429 21.1905 23.0952V19.2857H22.619C23.9333 19.2857 25 18.219 25 16.9048C25 15.5905 23.9333 14.5238 22.619 14.5238Z" fill="#3F51B5"/>
</g>
<defs>
<filter id="filter0_d" x="4" y="5" width="22" height="22" filterUnits="userSpaceOnUse" color-interpolation-filters="sRGB">
<feFlood flood-opacity="0" result="BackgroundImageFix"/>
<feColorMatrix in="SourceAlpha" type="matrix" values="0 0 0 0 0 0 0 0 0 0 0 0 0 0 0 0 0 0 127 0"/>
<feOffset dy="1"/>
<feGaussianBlur stdDeviation="0.5"/>
<feColorMatrix type="matrix" values="0 0 0 0 0 0 0 0 0 0 0 0 0 0 0 0 0 0 0.61 0"/>
<feBlend mode="normal" in2="BackgroundImageFix" result="effect1_dropShadow"/>
<feBlend mode="normal" in="SourceGraphic" in2="effect1_dropShadow" result="shape"/>
</filter>
</defs>
</svg>
