<svg width="24" height="24" viewBox="0 0 24 24" fill="none" xmlns="http://www.w3.org/2000/svg">
<path fill-rule="evenodd" clip-rule="evenodd" d="M11 7H9.75V8.25H7.875C7.37772 8.25 6.90081 8.44754 6.54917 8.79917C6.19754 9.15081 6 9.62772 6 10.125V13.875C6 14.3723 6.19754 14.8492 6.54917 15.2008C6.90081 15.5525 7.37772 15.75 7.875 15.75H9.75V17H11V7ZM9.75 9.5V14.5H7.875C7.70924 14.5 7.55027 14.4342 7.43306 14.3169C7.31585 14.1997 7.25 14.0408 7.25 13.875V10.125C7.25 9.95924 7.31585 9.80027 7.43306 9.68306C7.55027 9.56585 7.70924 9.5 7.875 9.5H9.75Z" fill="#00B0FF"/>
<path d="M16.625 14.5H12.25V15.75H16.625C17.1223 15.75 17.5992 15.5525 17.9508 15.2008C18.3025 14.8492 18.5 14.3723 18.5 13.875V10.125C18.5 9.62772 18.3025 9.15081 17.9508 8.79917C17.5992 8.44754 17.1223 8.25 16.625 8.25H12.25V9.5H16.625C16.7908 9.5 16.9497 9.56585 17.0669 9.68306C17.1842 9.80027 17.25 9.95924 17.25 10.125V13.875C17.25 14.0408 17.1842 14.1997 17.0669 14.3169C16.9497 14.4342 16.7908 14.5 16.625 14.5Z" fill="#00B0FF"/>
</svg>
