<svg width="13" height="10" viewBox="0 0 13 10" fill="none" xmlns="http://www.w3.org/2000/svg">
<path fill-rule="evenodd" clip-rule="evenodd" d="M5 0H3.75V1.25H1.875C1.37772 1.25 0.900806 1.44754 0.549175 1.79917C0.197544 2.15081 0 2.62772 0 3.125V6.875C0 7.37228 0.197544 7.84919 0.549175 8.20083C0.900806 8.55246 1.37772 8.75 1.875 8.75H3.75V10H5V0ZM3.75 2.5V7.5H1.875C1.70924 7.5 1.55027 7.43415 1.43306 7.31694C1.31585 7.19973 1.25 7.04076 1.25 6.875V3.125C1.25 2.95924 1.31585 2.80027 1.43306 2.68306C1.55027 2.56585 1.70924 2.5 1.875 2.5H3.75Z" fill="#00B0FF"/>
<path d="M10.625 7.5H6.25V8.75H10.625C11.1223 8.75 11.5992 8.55246 11.9508 8.20083C12.3025 7.84919 12.5 7.37228 12.5 6.875V3.125C12.5 2.62772 12.3025 2.15081 11.9508 1.79917C11.5992 1.44754 11.1223 1.25 10.625 1.25H6.25V2.5H10.625C10.7908 2.5 10.9497 2.56585 11.0669 2.68306C11.1842 2.80027 11.25 2.95924 11.25 3.125V6.875C11.25 7.04076 11.1842 7.19973 11.0669 7.31694C10.9497 7.43415 10.7908 7.5 10.625 7.5Z" fill="#00B0FF"/>
</svg>
