<svg width="30" height="30" viewBox="0 0 30 30" fill="none" xmlns="http://www.w3.org/2000/svg">
<path d="M23.619 13.5238H22.1905V9.71429C22.1905 8.66667 21.3333 7.80952 20.2857 7.80952H16.4762V6.38095C16.4762 5.06667 15.4095 4 14.0952 4C12.781 4 11.7143 5.06667 11.7143 6.38095V7.80952H7.90476C6.85714 7.80952 6.00952 8.66667 6.00952 9.71429V13.3333H7.42857C8.84762 13.3333 10 14.4857 10 15.9048C10 17.3238 8.84762 18.4762 7.42857 18.4762H6V22.0952C6 23.1429 6.85714 24 7.90476 24H11.5238V22.5714C11.5238 21.1524 12.6762 20 14.0952 20C15.5143 20 16.6667 21.1524 16.6667 22.5714V24H20.2857C21.3333 24 22.1905 23.1429 22.1905 22.0952V18.2857H23.619C24.9333 18.2857 26 17.219 26 15.9048C26 14.5905 24.9333 13.5238 23.619 13.5238Z" fill="#3F51B5"/>
</svg>
