<svg width="50" height="50" viewBox="0 0 50 50" fill="none" xmlns="http://www.w3.org/2000/svg">
<circle cx="25" cy="25" r="25" fill="#FC7A7A"/>
<path d="M25.0326 12.812C18.6196 12.812 13.4197 18.0933 13.4197 24.6068C13.4197 31.1203 18.6196 36.4017 25.0326 36.4017C31.4456 36.4017 36.6455 31.1203 36.6455 24.6068C36.6455 18.0933 31.4456 12.812 25.0326 12.812ZM25.0326 34.4008C19.7083 34.4008 15.3897 30.0146 15.3897 24.6068C15.3897 22.2636 16.2011 20.11 17.5542 18.425L31.119 32.2024C29.46 33.5767 27.3396 34.4008 25.0326 34.4008ZM32.511 30.7886L18.9462 17.0112C20.6052 15.6369 22.7256 14.8129 25.0326 14.8129C30.3569 14.8129 34.6754 19.1991 34.6754 24.6068C34.6754 26.95 33.8641 29.1036 32.511 30.7886Z" fill="white"/>
</svg>
