<svg width="98" height="24" viewBox="0 0 98 24" fill="none" xmlns="http://www.w3.org/2000/svg">
<line x1="8.82715" y1="3" x2="8.82715" y2="21" stroke="#90A1B1"/>
<rect x="7" y="5.57129" width="3.97943" height="12.8571" fill="#90A1B1"/>
<line x1="14.8477" y1="5.57129" x2="14.8477" y2="18.4284" stroke="#90A1B1"/>
<rect x="13.0215" y="8.14258" width="3.97943" height="7.71429" fill="#90A1B1"/>
<path d="M42.912 11.644C43.4 11.78 43.784 12.028 44.064 12.388C44.344 12.74 44.484 13.188 44.484 13.732C44.484 14.46 44.208 15.02 43.656 15.412C43.112 15.804 42.316 16 41.268 16H37.26V7.6H41.028C41.988 7.6 42.728 7.792 43.248 8.176C43.776 8.56 44.04 9.092 44.04 9.772C44.04 10.212 43.936 10.592 43.728 10.912C43.528 11.232 43.256 11.476 42.912 11.644ZM38.46 8.572V11.26H40.92C41.536 11.26 42.008 11.148 42.336 10.924C42.672 10.692 42.84 10.356 42.84 9.916C42.84 9.476 42.672 9.144 42.336 8.92C42.008 8.688 41.536 8.572 40.92 8.572H38.46ZM41.22 15.028C41.9 15.028 42.412 14.916 42.756 14.692C43.1 14.468 43.272 14.116 43.272 13.636C43.272 12.7 42.588 12.232 41.22 12.232H38.46V15.028H41.22ZM48.898 16.072C48.266 16.072 47.698 15.932 47.194 15.652C46.69 15.372 46.294 14.988 46.006 14.5C45.726 14.004 45.586 13.444 45.586 12.82C45.586 12.196 45.726 11.64 46.006 11.152C46.294 10.656 46.69 10.272 47.194 10C47.698 9.72 48.266 9.58 48.898 9.58C49.53 9.58 50.094 9.72 50.59 10C51.094 10.272 51.486 10.656 51.766 11.152C52.054 11.64 52.198 12.196 52.198 12.82C52.198 13.444 52.054 14.004 51.766 14.5C51.486 14.988 51.094 15.372 50.59 15.652C50.094 15.932 49.53 16.072 48.898 16.072ZM48.898 15.064C49.306 15.064 49.67 14.972 49.99 14.788C50.318 14.596 50.574 14.332 50.758 13.996C50.942 13.652 51.034 13.26 51.034 12.82C51.034 12.38 50.942 11.992 50.758 11.656C50.574 11.312 50.318 11.048 49.99 10.864C49.67 10.68 49.306 10.588 48.898 10.588C48.49 10.588 48.122 10.68 47.794 10.864C47.474 11.048 47.218 11.312 47.026 11.656C46.842 11.992 46.75 12.38 46.75 12.82C46.75 13.26 46.842 13.652 47.026 13.996C47.218 14.332 47.474 14.596 47.794 14.788C48.122 14.972 48.49 15.064 48.898 15.064ZM57.6363 16L55.8003 13.564L53.9403 16H52.6563L55.1643 12.748L52.7763 9.64H54.0603L55.8123 11.932L57.5523 9.64H58.8123L56.4123 12.748L58.9443 16H57.6363ZM66.796 9.58C67.412 9.58 67.964 9.716 68.452 9.988C68.94 10.26 69.32 10.64 69.592 11.128C69.872 11.616 70.012 12.18 70.012 12.82C70.012 13.46 69.872 14.028 69.592 14.524C69.32 15.012 68.94 15.392 68.452 15.664C67.964 15.936 67.412 16.072 66.796 16.072C66.34 16.072 65.92 15.984 65.536 15.808C65.16 15.632 64.84 15.376 64.576 15.04V18.328H63.424V9.64H64.528V10.648C64.784 10.296 65.108 10.032 65.5 9.856C65.892 9.672 66.324 9.58 66.796 9.58ZM66.7 15.064C67.108 15.064 67.472 14.972 67.792 14.788C68.12 14.596 68.376 14.332 68.56 13.996C68.752 13.652 68.848 13.26 68.848 12.82C68.848 12.38 68.752 11.992 68.56 11.656C68.376 11.312 68.12 11.048 67.792 10.864C67.472 10.68 67.108 10.588 66.7 10.588C66.3 10.588 65.936 10.684 65.608 10.876C65.288 11.06 65.032 11.32 64.84 11.656C64.656 11.992 64.564 12.38 64.564 12.82C64.564 13.26 64.656 13.652 64.84 13.996C65.024 14.332 65.28 14.596 65.608 14.788C65.936 14.972 66.3 15.064 66.7 15.064ZM71.6037 7.096H72.7557V16H71.6037V7.096ZM77.6793 16.072C77.0473 16.072 76.4793 15.932 75.9753 15.652C75.4713 15.372 75.0753 14.988 74.7873 14.5C74.5073 14.004 74.3673 13.444 74.3673 12.82C74.3673 12.196 74.5073 11.64 74.7873 11.152C75.0753 10.656 75.4713 10.272 75.9753 10C76.4793 9.72 77.0473 9.58 77.6793 9.58C78.3113 9.58 78.8753 9.72 79.3713 10C79.8753 10.272 80.2673 10.656 80.5473 11.152C80.8353 11.64 80.9793 12.196 80.9793 12.82C80.9793 13.444 80.8353 14.004 80.5473 14.5C80.2673 14.988 79.8753 15.372 79.3713 15.652C78.8753 15.932 78.3113 16.072 77.6793 16.072ZM77.6793 15.064C78.0873 15.064 78.4513 14.972 78.7713 14.788C79.0993 14.596 79.3553 14.332 79.5393 13.996C79.7233 13.652 79.8153 13.26 79.8153 12.82C79.8153 12.38 79.7233 11.992 79.5393 11.656C79.3553 11.312 79.0993 11.048 78.7713 10.864C78.4513 10.68 78.0873 10.588 77.6793 10.588C77.2713 10.588 76.9033 10.68 76.5753 10.864C76.2553 11.048 75.9993 11.312 75.8073 11.656C75.6233 11.992 75.5313 12.38 75.5313 12.82C75.5313 13.26 75.6233 13.652 75.8073 13.996C75.9993 14.332 76.2553 14.596 76.5753 14.788C76.9033 14.972 77.2713 15.064 77.6793 15.064ZM86.1485 15.628C85.9805 15.772 85.7725 15.884 85.5245 15.964C85.2765 16.036 85.0205 16.072 84.7565 16.072C84.1165 16.072 83.6205 15.9 83.2685 15.556C82.9165 15.212 82.7405 14.72 82.7405 14.08V10.588H81.6605V9.64H82.7405V8.248H83.8925V9.64H85.7165V10.588H83.8925V14.032C83.8925 14.376 83.9765 14.64 84.1445 14.824C84.3205 15.008 84.5685 15.1 84.8885 15.1C85.2405 15.1 85.5405 15 85.7885 14.8L86.1485 15.628Z" fill="#90A1B1"/>
</svg>
