<svg width="98" height="24" viewBox="0 0 98 24" fill="none" xmlns="http://www.w3.org/2000/svg">
<rect width="24" height="24" fill="#90A1B1"/>
<path d="M3 15C6.2 10.6 7 9.5 7 9.5L10 12.5L15 7.5L18 6.5L19.5 5" stroke="white" stroke-linecap="round" stroke-linejoin="round"/>
<path d="M3 19L7 14.5L10.5 16L15.5 11L18.5 10.5L20 9V19H3Z" fill="white" stroke="white" stroke-linejoin="round"/>
<rect x="24" width="74" height="24" fill="#90A1B1"/>
<path d="M42.612 13.9H38.148L37.224 16H35.988L39.792 7.6H40.98L44.796 16H43.536L42.612 13.9ZM42.192 12.94L40.38 8.824L38.568 12.94H42.192ZM46.9851 10.708C47.1851 10.34 47.4811 10.06 47.8731 9.868C48.2651 9.676 48.7411 9.58 49.3011 9.58V10.696C49.2371 10.688 49.1491 10.684 49.0371 10.684C48.4131 10.684 47.9211 10.872 47.5611 11.248C47.2091 11.616 47.0331 12.144 47.0331 12.832V16H45.8811V9.64H46.9851V10.708ZM56.4103 12.856C56.4103 12.944 56.4023 13.06 56.3863 13.204H51.2263C51.2983 13.764 51.5423 14.216 51.9583 14.56C52.3823 14.896 52.9063 15.064 53.5303 15.064C54.2903 15.064 54.9023 14.808 55.3663 14.296L56.0023 15.04C55.7143 15.376 55.3543 15.632 54.9223 15.808C54.4983 15.984 54.0223 16.072 53.4943 16.072C52.8223 16.072 52.2263 15.936 51.7063 15.664C51.1863 15.384 50.7823 14.996 50.4943 14.5C50.2143 14.004 50.0743 13.444 50.0743 12.82C50.0743 12.204 50.2103 11.648 50.4823 11.152C50.7623 10.656 51.1423 10.272 51.6223 10C52.1103 9.72 52.6583 9.58 53.2663 9.58C53.8743 9.58 54.4143 9.72 54.8863 10C55.3663 10.272 55.7383 10.656 56.0023 11.152C56.2743 11.648 56.4103 12.216 56.4103 12.856ZM53.2663 10.552C52.7143 10.552 52.2503 10.72 51.8743 11.056C51.5063 11.392 51.2903 11.832 51.2263 12.376H55.3063C55.2423 11.84 55.0223 11.404 54.6463 11.068C54.2783 10.724 53.8183 10.552 53.2663 10.552ZM60.1502 9.58C61.0302 9.58 61.7022 9.796 62.1662 10.228C62.6382 10.66 62.8742 11.304 62.8742 12.16V16H61.7822V15.16C61.5902 15.456 61.3142 15.684 60.9542 15.844C60.6022 15.996 60.1822 16.072 59.6942 16.072C58.9822 16.072 58.4102 15.9 57.9782 15.556C57.5542 15.212 57.3422 14.76 57.3422 14.2C57.3422 13.64 57.5462 13.192 57.9542 12.856C58.3622 12.512 59.0102 12.34 59.8982 12.34H61.7222V12.112C61.7222 11.616 61.5782 11.236 61.2902 10.972C61.0022 10.708 60.5782 10.576 60.0182 10.576C59.6422 10.576 59.2742 10.64 58.9142 10.768C58.5542 10.888 58.2502 11.052 58.0022 11.26L57.5222 10.396C57.8502 10.132 58.2422 9.932 58.6982 9.796C59.1542 9.652 59.6382 9.58 60.1502 9.58ZM59.8862 15.184C60.3262 15.184 60.7062 15.088 61.0262 14.896C61.3462 14.696 61.5782 14.416 61.7222 14.056V13.168H59.9462C58.9702 13.168 58.4822 13.496 58.4822 14.152C58.4822 14.472 58.6062 14.724 58.8542 14.908C59.1022 15.092 59.4462 15.184 59.8862 15.184Z" fill="white"/>
</svg>
