<svg width="98" height="24" viewBox="0 0 98 24" fill="none" xmlns="http://www.w3.org/2000/svg">
<rect width="24" height="24" fill="#90A1B1"/>
<circle cx="3.5" cy="16.5" r="0.5" fill="white"/>
<circle cx="4.5" cy="14.5" r="0.5" fill="white"/>
<circle cx="5.5" cy="12.5" r="0.5" fill="white"/>
<circle cx="6.5" cy="11.5" r="0.5" fill="white"/>
<circle cx="7.5" cy="12.5" r="0.5" fill="white"/>
<circle cx="8.5" cy="13.5" r="0.5" fill="white"/>
<circle cx="9.5" cy="14.5" r="0.5" fill="white"/>
<circle cx="10.5" cy="15.5" r="0.5" fill="white"/>
<circle cx="11.5" cy="14.5" r="0.5" fill="white"/>
<circle cx="12.5" cy="12.5" r="0.5" fill="white"/>
<circle cx="13.5" cy="10.5" r="0.5" fill="white"/>
<circle cx="14.5" cy="9.5" r="0.5" fill="white"/>
<circle cx="15.5" cy="10.5" r="0.5" fill="white"/>
<circle cx="16.5" cy="11.5" r="0.5" fill="white"/>
<circle cx="17.5" cy="10.5" r="0.5" fill="white"/>
<circle cx="18.5" cy="9.5" r="0.5" fill="white"/>
<circle cx="20.5" cy="7.5" r="0.5" fill="white"/>
<circle cx="19.5" cy="8.5" r="0.5" fill="white"/>
<rect x="24" width="74" height="24" fill="#90A1B1"/>
<path d="M40.536 7.6C41.624 7.6 42.48 7.86 43.104 8.38C43.728 8.9 44.04 9.616 44.04 10.528C44.04 11.44 43.728 12.156 43.104 12.676C42.48 13.196 41.624 13.456 40.536 13.456H38.46V16H37.26V7.6H40.536ZM40.5 12.412C41.26 12.412 41.84 12.252 42.24 11.932C42.64 11.604 42.84 11.136 42.84 10.528C42.84 9.92 42.64 9.456 42.24 9.136C41.84 8.808 41.26 8.644 40.5 8.644H38.46V12.412H40.5ZM48.3355 16.072C47.7035 16.072 47.1355 15.932 46.6315 15.652C46.1275 15.372 45.7315 14.988 45.4435 14.5C45.1635 14.004 45.0235 13.444 45.0235 12.82C45.0235 12.196 45.1635 11.64 45.4435 11.152C45.7315 10.656 46.1275 10.272 46.6315 10C47.1355 9.72 47.7035 9.58 48.3355 9.58C48.9675 9.58 49.5315 9.72 50.0275 10C50.5315 10.272 50.9235 10.656 51.2035 11.152C51.4915 11.64 51.6355 12.196 51.6355 12.82C51.6355 13.444 51.4915 14.004 51.2035 14.5C50.9235 14.988 50.5315 15.372 50.0275 15.652C49.5315 15.932 48.9675 16.072 48.3355 16.072ZM48.3355 15.064C48.7435 15.064 49.1075 14.972 49.4275 14.788C49.7555 14.596 50.0115 14.332 50.1955 13.996C50.3795 13.652 50.4715 13.26 50.4715 12.82C50.4715 12.38 50.3795 11.992 50.1955 11.656C50.0115 11.312 49.7555 11.048 49.4275 10.864C49.1075 10.68 48.7435 10.588 48.3355 10.588C47.9275 10.588 47.5595 10.68 47.2315 10.864C46.9115 11.048 46.6555 11.312 46.4635 11.656C46.2795 11.992 46.1875 12.38 46.1875 12.82C46.1875 13.26 46.2795 13.652 46.4635 13.996C46.6555 14.332 46.9115 14.596 47.2315 14.788C47.5595 14.972 47.9275 15.064 48.3355 15.064ZM53.2287 9.64H54.3807V16H53.2287V9.64ZM53.8047 8.416C53.5807 8.416 53.3927 8.344 53.2407 8.2C53.0967 8.056 53.0247 7.88 53.0247 7.672C53.0247 7.464 53.0967 7.288 53.2407 7.144C53.3927 6.992 53.5807 6.916 53.8047 6.916C54.0287 6.916 54.2127 6.988 54.3567 7.132C54.5087 7.268 54.5847 7.44 54.5847 7.648C54.5847 7.864 54.5087 8.048 54.3567 8.2C54.2127 8.344 54.0287 8.416 53.8047 8.416ZM59.9763 9.58C60.7843 9.58 61.4243 9.816 61.8963 10.288C62.3763 10.752 62.6163 11.436 62.6163 12.34V16H61.4643V12.472C61.4643 11.856 61.3163 11.392 61.0203 11.08C60.7243 10.768 60.3003 10.612 59.7483 10.612C59.1243 10.612 58.6323 10.796 58.2723 11.164C57.9123 11.524 57.7323 12.044 57.7323 12.724V16H56.5803V9.64H57.6843V10.6C57.9163 10.272 58.2283 10.02 58.6203 9.844C59.0203 9.668 59.4723 9.58 59.9763 9.58ZM68.3243 15.628C68.1563 15.772 67.9483 15.884 67.7003 15.964C67.4523 16.036 67.1963 16.072 66.9323 16.072C66.2923 16.072 65.7963 15.9 65.4443 15.556C65.0923 15.212 64.9163 14.72 64.9163 14.08V10.588H63.8363V9.64H64.9163V8.248H66.0683V9.64H67.8923V10.588H66.0683V14.032C66.0683 14.376 66.1523 14.64 66.3203 14.824C66.4963 15.008 66.7443 15.1 67.0643 15.1C67.4163 15.1 67.7163 15 67.9643 14.8L68.3243 15.628Z" fill="white"/>
</svg>
