<svg width="98" height="24" viewBox="0 0 98 24" fill="none" xmlns="http://www.w3.org/2000/svg">
<rect width="24" height="24" fill="#90A1B1"/>
<path d="M4 17.9998C5.5 13.4998 7.5 12.9998 7.5 12.9998C7.5 12.9998 8 12.9995 9 14.4998C10 16 10 16.5 11 16.4998C12 16.4995 14.5 7.99977 16 10.4998C17.5 12.9998 18.5 11 19 9.5C19.5 8 19.5 7.5 20.5 7" stroke="white" stroke-linecap="round" stroke-linejoin="round"/>
<rect x="24" width="74" height="24" fill="#90A1B1"/>
<path d="M39.708 16.096C39.076 16.096 38.464 16 37.872 15.808C37.288 15.608 36.828 15.352 36.492 15.04L36.936 14.104C37.256 14.392 37.664 14.628 38.16 14.812C38.664 14.988 39.18 15.076 39.708 15.076C40.404 15.076 40.924 14.96 41.268 14.728C41.612 14.488 41.784 14.172 41.784 13.78C41.784 13.492 41.688 13.26 41.496 13.084C41.312 12.9 41.08 12.76 40.8 12.664C40.528 12.568 40.14 12.46 39.636 12.34C39.004 12.188 38.492 12.036 38.1 11.884C37.716 11.732 37.384 11.5 37.104 11.188C36.832 10.868 36.696 10.44 36.696 9.904C36.696 9.456 36.812 9.052 37.044 8.692C37.284 8.332 37.644 8.044 38.124 7.828C38.604 7.612 39.2 7.504 39.912 7.504C40.408 7.504 40.896 7.568 41.376 7.696C41.856 7.824 42.268 8.008 42.612 8.248L42.216 9.208C41.864 8.984 41.488 8.816 41.088 8.704C40.688 8.584 40.296 8.524 39.912 8.524C39.232 8.524 38.72 8.648 38.376 8.896C38.04 9.144 37.872 9.464 37.872 9.856C37.872 10.144 37.968 10.38 38.16 10.564C38.352 10.74 38.588 10.88 38.868 10.984C39.156 11.08 39.544 11.184 40.032 11.296C40.664 11.448 41.172 11.6 41.556 11.752C41.94 11.904 42.268 12.136 42.54 12.448C42.82 12.76 42.96 13.18 42.96 13.708C42.96 14.148 42.84 14.552 42.6 14.92C42.36 15.28 41.996 15.568 41.508 15.784C41.02 15.992 40.42 16.096 39.708 16.096ZM47.9171 9.58C48.5331 9.58 49.0851 9.716 49.5731 9.988C50.0611 10.26 50.4411 10.64 50.7131 11.128C50.9931 11.616 51.1331 12.18 51.1331 12.82C51.1331 13.46 50.9931 14.028 50.7131 14.524C50.4411 15.012 50.0611 15.392 49.5731 15.664C49.0851 15.936 48.5331 16.072 47.9171 16.072C47.4611 16.072 47.0411 15.984 46.6571 15.808C46.2811 15.632 45.9611 15.376 45.6971 15.04V18.328H44.5451V9.64H45.6491V10.648C45.9051 10.296 46.2291 10.032 46.6211 9.856C47.0131 9.672 47.4451 9.58 47.9171 9.58ZM47.8211 15.064C48.2291 15.064 48.5931 14.972 48.9131 14.788C49.2411 14.596 49.4971 14.332 49.6811 13.996C49.8731 13.652 49.9691 13.26 49.9691 12.82C49.9691 12.38 49.8731 11.992 49.6811 11.656C49.4971 11.312 49.2411 11.048 48.9131 10.864C48.5931 10.68 48.2291 10.588 47.8211 10.588C47.4211 10.588 47.0571 10.684 46.7291 10.876C46.4091 11.06 46.1531 11.32 45.9611 11.656C45.7771 11.992 45.6851 12.38 45.6851 12.82C45.6851 13.26 45.7771 13.652 45.9611 13.996C46.1451 14.332 46.4011 14.596 46.7291 14.788C47.0571 14.972 47.4211 15.064 47.8211 15.064ZM52.7248 7.096H53.8768V16H52.7248V7.096ZM56.0764 9.64H57.2284V16H56.0764V9.64ZM56.6524 8.416C56.4284 8.416 56.2404 8.344 56.0884 8.2C55.9444 8.056 55.8724 7.88 55.8724 7.672C55.8724 7.464 55.9444 7.288 56.0884 7.144C56.2404 6.992 56.4284 6.916 56.6524 6.916C56.8764 6.916 57.0604 6.988 57.2044 7.132C57.3564 7.268 57.4324 7.44 57.4324 7.648C57.4324 7.864 57.3564 8.048 57.2044 8.2C57.0604 8.344 56.8764 8.416 56.6524 8.416ZM62.8239 9.58C63.6319 9.58 64.2719 9.816 64.7439 10.288C65.2239 10.752 65.4639 11.436 65.4639 12.34V16H64.3119V12.472C64.3119 11.856 64.1639 11.392 63.8679 11.08C63.5719 10.768 63.1479 10.612 62.5959 10.612C61.9719 10.612 61.4799 10.796 61.1199 11.164C60.7599 11.524 60.5799 12.044 60.5799 12.724V16H59.4279V9.64H60.5319V10.6C60.7639 10.272 61.0759 10.02 61.4679 9.844C61.8679 9.668 62.3199 9.58 62.8239 9.58ZM73.3791 12.856C73.3791 12.944 73.3711 13.06 73.3551 13.204H68.1951C68.2671 13.764 68.5111 14.216 68.9271 14.56C69.3511 14.896 69.8751 15.064 70.4991 15.064C71.2591 15.064 71.8711 14.808 72.3351 14.296L72.9711 15.04C72.6831 15.376 72.3231 15.632 71.8911 15.808C71.4671 15.984 70.9911 16.072 70.4631 16.072C69.7911 16.072 69.1951 15.936 68.6751 15.664C68.1551 15.384 67.7511 14.996 67.4631 14.5C67.1831 14.004 67.0431 13.444 67.0431 12.82C67.0431 12.204 67.1791 11.648 67.4511 11.152C67.7311 10.656 68.1111 10.272 68.5911 10C69.0791 9.72 69.6271 9.58 70.2351 9.58C70.8431 9.58 71.3831 9.72 71.8551 10C72.3351 10.272 72.7071 10.656 72.9711 11.152C73.2431 11.648 73.3791 12.216 73.3791 12.856ZM70.2351 10.552C69.6831 10.552 69.2191 10.72 68.8431 11.056C68.4751 11.392 68.2591 11.832 68.1951 12.376H72.2751C72.2111 11.84 71.9911 11.404 71.6151 11.068C71.2471 10.724 70.7871 10.552 70.2351 10.552Z" fill="white"/>
</svg>
