<svg width="98" height="24" viewBox="0 0 98 24" fill="none" xmlns="http://www.w3.org/2000/svg">
<path d="M4 17C7.2 12.6 8 11.5 8 11.5L11 15.5L16 9.5L19 8.5L20.5 7" stroke="#90A1B1" stroke-linecap="round"/>
<path d="M37.26 7.6H38.46V14.956H43.008V16H37.26V7.6ZM44.217 9.64H45.369V16H44.217V9.64ZM44.793 8.416C44.569 8.416 44.381 8.344 44.229 8.2C44.085 8.056 44.013 7.88 44.013 7.672C44.013 7.464 44.085 7.288 44.229 7.144C44.381 6.992 44.569 6.916 44.793 6.916C45.017 6.916 45.201 6.988 45.345 7.132C45.497 7.268 45.573 7.44 45.573 7.648C45.573 7.864 45.497 8.048 45.345 8.2C45.201 8.344 45.017 8.416 44.793 8.416ZM50.9646 9.58C51.7726 9.58 52.4126 9.816 52.8846 10.288C53.3646 10.752 53.6046 11.436 53.6046 12.34V16H52.4526V12.472C52.4526 11.856 52.3046 11.392 52.0086 11.08C51.7126 10.768 51.2886 10.612 50.7366 10.612C50.1126 10.612 49.6206 10.796 49.2606 11.164C48.9006 11.524 48.7206 12.044 48.7206 12.724V16H47.5686V9.64H48.6726V10.6C48.9046 10.272 49.2166 10.02 49.6086 9.844C50.0086 9.668 50.4606 9.58 50.9646 9.58ZM61.5197 12.856C61.5197 12.944 61.5117 13.06 61.4957 13.204H56.3357C56.4077 13.764 56.6517 14.216 57.0677 14.56C57.4917 14.896 58.0157 15.064 58.6397 15.064C59.3997 15.064 60.0117 14.808 60.4757 14.296L61.1117 15.04C60.8237 15.376 60.4637 15.632 60.0317 15.808C59.6077 15.984 59.1317 16.072 58.6037 16.072C57.9317 16.072 57.3357 15.936 56.8157 15.664C56.2957 15.384 55.8917 14.996 55.6037 14.5C55.3237 14.004 55.1837 13.444 55.1837 12.82C55.1837 12.204 55.3197 11.648 55.5917 11.152C55.8717 10.656 56.2517 10.272 56.7317 10C57.2197 9.72 57.7677 9.58 58.3757 9.58C58.9837 9.58 59.5237 9.72 59.9957 10C60.4757 10.272 60.8477 10.656 61.1117 11.152C61.3837 11.648 61.5197 12.216 61.5197 12.856ZM58.3757 10.552C57.8237 10.552 57.3597 10.72 56.9837 11.056C56.6157 11.392 56.3997 11.832 56.3357 12.376H60.4157C60.3517 11.84 60.1317 11.404 59.7557 11.068C59.3877 10.724 58.9277 10.552 58.3757 10.552Z" fill="#90A1B1"/>
</svg>
