<svg width="98" height="24" viewBox="0 0 98 24" fill="none" xmlns="http://www.w3.org/2000/svg">
<path d="M3.5 17.5V15H5V13H6.5V11.5H8H9.5V13.5H10.5V15.5H11.5H12.5V13.5H14V11.5H15.5V9H17V10.5H18.5V8.5H20V6H21" stroke="#90A1B1"/>
<path d="M39.708 16.096C39.076 16.096 38.464 16 37.872 15.808C37.288 15.608 36.828 15.352 36.492 15.04L36.936 14.104C37.256 14.392 37.664 14.628 38.16 14.812C38.664 14.988 39.18 15.076 39.708 15.076C40.404 15.076 40.924 14.96 41.268 14.728C41.612 14.488 41.784 14.172 41.784 13.78C41.784 13.492 41.688 13.26 41.496 13.084C41.312 12.9 41.08 12.76 40.8 12.664C40.528 12.568 40.14 12.46 39.636 12.34C39.004 12.188 38.492 12.036 38.1 11.884C37.716 11.732 37.384 11.5 37.104 11.188C36.832 10.868 36.696 10.44 36.696 9.904C36.696 9.456 36.812 9.052 37.044 8.692C37.284 8.332 37.644 8.044 38.124 7.828C38.604 7.612 39.2 7.504 39.912 7.504C40.408 7.504 40.896 7.568 41.376 7.696C41.856 7.824 42.268 8.008 42.612 8.248L42.216 9.208C41.864 8.984 41.488 8.816 41.088 8.704C40.688 8.584 40.296 8.524 39.912 8.524C39.232 8.524 38.72 8.648 38.376 8.896C38.04 9.144 37.872 9.464 37.872 9.856C37.872 10.144 37.968 10.38 38.16 10.564C38.352 10.74 38.588 10.88 38.868 10.984C39.156 11.08 39.544 11.184 40.032 11.296C40.664 11.448 41.172 11.6 41.556 11.752C41.94 11.904 42.268 12.136 42.54 12.448C42.82 12.76 42.96 13.18 42.96 13.708C42.96 14.148 42.84 14.552 42.6 14.92C42.36 15.28 41.996 15.568 41.508 15.784C41.02 15.992 40.42 16.096 39.708 16.096ZM48.1211 15.628C47.9531 15.772 47.7451 15.884 47.4971 15.964C47.2491 16.036 46.9931 16.072 46.7291 16.072C46.0891 16.072 45.5931 15.9 45.2411 15.556C44.8891 15.212 44.7131 14.72 44.7131 14.08V10.588H43.6331V9.64H44.7131V8.248H45.8651V9.64H47.6891V10.588H45.8651V14.032C45.8651 14.376 45.9491 14.64 46.1171 14.824C46.2931 15.008 46.5411 15.1 46.8611 15.1C47.2131 15.1 47.5131 15 47.7611 14.8L48.1211 15.628ZM55.0509 12.856C55.0509 12.944 55.0429 13.06 55.0269 13.204H49.8669C49.9389 13.764 50.1829 14.216 50.5989 14.56C51.0229 14.896 51.5469 15.064 52.1709 15.064C52.9309 15.064 53.5429 14.808 54.0069 14.296L54.6429 15.04C54.3549 15.376 53.9949 15.632 53.5629 15.808C53.1389 15.984 52.6629 16.072 52.1349 16.072C51.4629 16.072 50.8669 15.936 50.3469 15.664C49.8269 15.384 49.4229 14.996 49.1349 14.5C48.8549 14.004 48.7149 13.444 48.7149 12.82C48.7149 12.204 48.8509 11.648 49.1229 11.152C49.4029 10.656 49.7829 10.272 50.2629 10C50.7509 9.72 51.2989 9.58 51.9069 9.58C52.5149 9.58 53.0549 9.72 53.5269 10C54.0069 10.272 54.3789 10.656 54.6429 11.152C54.9149 11.648 55.0509 12.216 55.0509 12.856ZM51.9069 10.552C51.3549 10.552 50.8909 10.72 50.5149 11.056C50.1469 11.392 49.9309 11.832 49.8669 12.376H53.9469C53.8829 11.84 53.6629 11.404 53.2869 11.068C52.9189 10.724 52.4589 10.552 51.9069 10.552ZM60.0226 9.58C60.6386 9.58 61.1906 9.716 61.6786 9.988C62.1666 10.26 62.5466 10.64 62.8186 11.128C63.0986 11.616 63.2386 12.18 63.2386 12.82C63.2386 13.46 63.0986 14.028 62.8186 14.524C62.5466 15.012 62.1666 15.392 61.6786 15.664C61.1906 15.936 60.6386 16.072 60.0226 16.072C59.5666 16.072 59.1466 15.984 58.7626 15.808C58.3866 15.632 58.0666 15.376 57.8026 15.04V18.328H56.6506V9.64H57.7546V10.648C58.0106 10.296 58.3346 10.032 58.7266 9.856C59.1186 9.672 59.5506 9.58 60.0226 9.58ZM59.9266 15.064C60.3346 15.064 60.6986 14.972 61.0186 14.788C61.3466 14.596 61.6026 14.332 61.7866 13.996C61.9786 13.652 62.0746 13.26 62.0746 12.82C62.0746 12.38 61.9786 11.992 61.7866 11.656C61.6026 11.312 61.3466 11.048 61.0186 10.864C60.6986 10.68 60.3346 10.588 59.9266 10.588C59.5266 10.588 59.1626 10.684 58.8346 10.876C58.5146 11.06 58.2586 11.32 58.0666 11.656C57.8826 11.992 57.7906 12.38 57.7906 12.82C57.7906 13.26 57.8826 13.652 58.0666 13.996C58.2506 14.332 58.5066 14.596 58.8346 14.788C59.1626 14.972 59.5266 15.064 59.9266 15.064Z" fill="#90A1B1"/>
</svg>
